<svg width="20" height="20" fill="none" xmlns="http://www.w3.org/2000/svg"><path d="M16.333 2h-1.055V1a.974.974 0 00-.31-.707A1.086 1.086 0 0014.223 0c-.28 0-.548.105-.746.293a.974.974 0 00-.31.707v1H6.834V1a.974.974 0 00-.309-.707A1.086 1.086 0 005.778 0c-.28 0-.549.105-.747.293A.974.974 0 004.722 1v1H3.667c-.84 0-1.646.316-2.24.879A2.922 2.922 0 00.5 5v12c0 .796.334 1.559.927 2.121.594.563 1.4.88 2.24.88h12.666a3.26 3.26 0 002.24-.88 2.922 2.922 0 00.927-2.12V5c0-.797-.334-1.56-.927-2.122A3.258 3.258 0 0016.333 2zM5.778 15c-.209 0-.413-.059-.587-.168a1.013 1.013 0 01-.388-.45.951.951 0 01-.06-.577.985.985 0 01.288-.512 1.08 1.08 0 01.54-.274 1.11 1.11 0 01.61.057c.194.076.358.204.474.368a.963.963 0 01-.13 1.263 1.086 1.086 0 01-.747.293zm8.444 0H10c-.28 0-.548-.105-.746-.293a.974.974 0 01-.31-.707c0-.265.112-.52.31-.707.198-.188.466-.293.746-.293h4.222c.28 0 .549.105.747.293a.975.975 0 01.309.707.97.97 0 01-.31.707 1.086 1.086 0 01-.746.293zm3.167-6H2.61V5a.97.97 0 01.31-.707c.197-.188.466-.293.746-.293h1.055v1c0 .265.111.52.31.707.197.188.466.293.746.293.28 0 .548-.105.746-.293A.974.974 0 006.834 5V4h6.333v1c0 .265.11.52.309.707.198.188.466.293.746.293.28 0 .549-.105.747-.293A.974.974 0 0015.278 5V4h1.055c.28 0 .549.105.747.293a.973.973 0 01.309.707v4z" fill="#F4F6F8"/></svg>