<svg width="40" height="40" fill="none" xmlns="http://www.w3.org/2000/svg"><rect width="40" height="40" rx="7" fill="#262D34"/><path d="M20.542 15.631l-3.067 1.695c-1.31.724-2.333 1.293-3.068 1.706a4.73 4.73 0 01-2.275-1.464l-.13.079a.408.408 0 01-.305.04.423.423 0 01-.258-.175l-.387-.642a.37.37 0 01-.035-.304.434.434 0 01.188-.26l.129-.067c-.415-1.036-.425-2.089-.03-3.158.395-1.07 1.105-1.886 2.13-2.45 1.04-.57 2.135-.754 3.284-.551 1.15.202 2.092.735 2.827 1.599l.13-.08a.437.437 0 01.328-.027c.11.034.195.096.258.186l.375.641c.055.09.068.188.041.293a.408.408 0 01-.182.248l-.152.079a4.43 4.43 0 01.2 2.612zm2.968 12.714c.29.533.651.942 1.085 1.227.434.285.901.428 1.402.428.876 0 1.597-.276 2.164-.828.567-.552.847-1.236.839-2.055a4.88 4.88 0 00-.065-.788 7.515 7.515 0 00-.135-.664 4.448 4.448 0 00-.217-.614c-.097-.23-.17-.39-.217-.484-.046-.094-.125-.24-.234-.44a5.37 5.37 0 01-.176-.332c-.172-.315-.35-.529-.534-.642-.184-.112-.334-.138-.452-.078-.078.037-.133.108-.164.214a.825.825 0 00.012.41c.039.17.113.348.223.535.227.376.451.87.674 1.481.223.612.335 1.11.335 1.492 0 .488-.213.912-.64 1.273-.426.36-.917.54-1.472.54-.453 0-.938-.405-1.454-1.216l.093-.056c.212-.12.368-.231.47-.332a.68.68 0 00.187-.4c.024-.165-.023-.353-.14-.563l-4.434-9.74-1.913 1.058.974 1.61a.3.3 0 01.03.253.34.34 0 01-.159.209l-.457.247-.458.248a.317.317 0 01-.264.04.384.384 0 01-.217-.164l-.962-1.599-1.912 1.059 6.57 8.558c.218.278.441.43.668.456.227.026.48-.05.762-.23l.188-.113z" fill="#F4F6F8"/></svg>