<svg width="20" height="20" fill="none" xmlns="http://www.w3.org/2000/svg"><path d="M10.542 5.631L7.475 7.326c-1.31.724-2.333 1.293-3.068 1.706a4.73 4.73 0 01-2.276-1.464l-.129.079a.408.408 0 01-.305.04.424.424 0 01-.258-.175l-.387-.642a.371.371 0 01-.035-.304.434.434 0 01.188-.26l.129-.067C.919 5.203.91 4.15 1.304 3.081 1.7 2.01 2.41 1.195 3.434.63 4.474.061 5.568-.123 6.718.08c1.15.202 2.092.735 2.827 1.599l.13-.08a.437.437 0 01.328-.027c.11.034.195.095.258.186l.375.641c.055.09.068.188.041.293a.408.408 0 01-.182.248l-.152.079c.328.833.395 1.704.2 2.612zm2.968 12.714c.29.533.651.942 1.085 1.227.434.285.901.428 1.402.428.876 0 1.597-.276 2.164-.828.567-.552.847-1.236.839-2.055a4.88 4.88 0 00-.065-.788 7.515 7.515 0 00-.135-.664 4.448 4.448 0 00-.217-.614c-.097-.23-.17-.39-.217-.484-.046-.094-.125-.24-.234-.44a5.37 5.37 0 01-.176-.332c-.172-.315-.35-.529-.534-.642-.184-.112-.334-.138-.452-.078-.078.037-.133.109-.164.214a.825.825 0 00.012.41c.039.17.113.348.223.536.227.375.451.868.674 1.48.223.612.335 1.11.335 1.492 0 .488-.213.912-.64 1.273-.426.36-.917.54-1.472.54-.453 0-.938-.405-1.454-1.216l.093-.056c.212-.12.368-.231.47-.332a.68.68 0 00.187-.4c.024-.165-.023-.353-.14-.563l-4.434-9.74L8.746 7.77l.974 1.61a.3.3 0 01.03.253.339.339 0 01-.159.209l-.457.248-.458.247a.317.317 0 01-.264.04.384.384 0 01-.217-.164l-.962-1.599-1.912 1.059 6.57 8.558c.218.278.441.43.668.456.227.026.48-.05.762-.23l.188-.113z" fill="#F4F6F8"/></svg>