<svg width="40" height="40" fill="none" xmlns="http://www.w3.org/2000/svg"><rect width="40" height="40" rx="7" fill="#2C353D"/><g clip-path="url(#clip0_3855_600)"><path d="M29.976 19.155c-.186-2.763-1.581-5.343-3.79-7.056-2.21-1.712-5.094-2.42-7.885-1.963-4.977.845-8.628 5.365-8.279 10.343a9.702 9.702 0 002.907 6.302c-.442.639-.837 1.05-1.884 1.872a.614.614 0 00-.232.662.679.679 0 00.465.525c.349.114.86.16 1.442.16 1.232 0 2.79-.274 4-.89 1.604.548 3.325.684 5.023.388 4.977-.868 8.582-5.412 8.233-10.344zm-14.628 2.443c-.907 0-1.628-.708-1.628-1.599 0-.89.72-1.598 1.628-1.598.907 0 1.628.708 1.628 1.598 0 .89-.721 1.599-1.628 1.599zm4.651 0c-.907 0-1.628-.708-1.628-1.599 0-.89.721-1.598 1.628-1.598.907 0 1.628.708 1.628 1.598 0 .89-.721 1.599-1.628 1.599zm4.651 0c-.907 0-1.628-.708-1.628-1.599 0-.89.721-1.598 1.628-1.598.907 0 1.628.708 1.628 1.598 0 .89-.72 1.599-1.628 1.599z" fill="#F4F6F8"/></g><defs><clipPath id="clip0_3855_600"><path fill="#fff" transform="translate(10 10)" d="M0 0h20v20H0z"/></clipPath></defs></svg>