<svg width="40" height="40" fill="none" xmlns="http://www.w3.org/2000/svg"><rect width="40" height="40" rx="7" fill="#262D34"/><ellipse cx="20" cy="25" rx="6" ry="3" fill="#F4F6F8"/><circle cx="20" cy="16" r="4" fill="#F4F6F8"/><path fill-rule="evenodd" clip-rule="evenodd" d="M15.25 13.468A3.499 3.499 0 0013.5 16.5c0 1.296.704 2.427 1.75 3.032a3.5 3.5 0 110-6.064zm9.5 0A3.499 3.499 0 0126.5 16.5a3.499 3.499 0 01-1.75 3.032 3.5 3.5 0 100-6.064zM25.5 22a2.5 2.5 0 012 4 2.5 2.5 0 10-2-4zm-11 0a2.5 2.5 0 00-2 4 2.5 2.5 0 112-4z" fill="#F4F6F8"/><circle cx="26.5" cy="13.5" r="3" fill="#FF6934" stroke="#262D34"/></svg>