<svg width="20" height="20" fill="none" xmlns="http://www.w3.org/2000/svg"><ellipse cx="10" cy="15" rx="6" ry="3" fill="#F4F6F8"/><circle cx="10" cy="6" r="4" fill="#F4F6F8"/><path fill-rule="evenodd" clip-rule="evenodd" d="M5.25 3.468A3.499 3.499 0 003.5 6.5a3.5 3.5 0 001.75 3.032 3.5 3.5 0 110-6.064zm9.5 0A3.499 3.499 0 0116.5 6.5a3.499 3.499 0 01-1.75 3.032 3.5 3.5 0 100-6.064zM15.5 12a2.5 2.5 0 012 4 2.5 2.5 0 10-2-4zm-11 0a2.5 2.5 0 00-2 4 2.5 2.5 0 112-4z" fill="#F4F6F8"/><circle cx="16.5" cy="3.5" r="3" fill="#FF6934" stroke="#262D34"/></svg>