<svg width="40" height="40" fill="none" xmlns="http://www.w3.org/2000/svg"><rect width="40" height="40" rx="7" fill="#262D34"/><g clip-path="url(#clip0_3855_582)" fill="#F4F6F8"><path d="M28.706 18.568v-.243c0-.995-.847-1.845-1.953-2.087C26.377 12.743 23.483 10 20 10c-3.482 0-6.376 2.742-6.753 6.238-1.13.242-1.953 1.092-1.953 2.087v.243c-.73.145-1.294.874-1.294 1.723 0 .874.565 1.578 1.294 1.724v.242c0 1.19 1.177 2.16 2.635 2.16h.542v-7.524c.047-3.082 2.517-5.582 5.529-5.582 3.035 0 5.53 2.548 5.53 5.704v7.403h.54c1.436 0 2.636-.971 2.636-2.16v-.243c.73-.146 1.294-.874 1.294-1.724 0-.874-.565-1.578-1.294-1.723z"/><path d="M24.044 21c-.423 0-.753.34-.753.777 0 1.869-1.482 3.398-3.294 3.398-1.811 0-3.294-1.53-3.294-3.398 0-.437-.33-.777-.753-.777s-.753.34-.753.777c0 2.476 1.765 4.563 4.141 4.903v2.665c0 .364.283.655.636.655.353 0 .635-.316.635-.655v-2.69c2.376-.34 4.165-2.403 4.165-4.903a.716.716 0 00-.73-.752z"/><path d="M20 23.685c-1.248 0-2.26-1.044-2.26-2.33V16.33c0-1.286 1.012-2.33 2.26-2.33 1.246 0 2.258 1.044 2.258 2.33v5.024c0 1.287-1.012 2.33-2.259 2.33z"/></g><defs><clipPath id="clip0_3855_582"><path fill="#fff" transform="translate(10 10)" d="M0 0h20v20H0z"/></clipPath></defs></svg>