<svg width="106" height="60" fill="none" xmlns="http://www.w3.org/2000/svg"><g fill="#AFB1B8"><path d="M53.425 27.408a2.947 2.947 0 01-.605-1.989v-2.883c0-.884.2-1.555.602-2.015.4-.46 1.089-.688 2.065-.686.917 0 1.569.195 1.953.587.42.499.625 1.109.578 1.724v.678h-1.64v-.687a3.513 3.513 0 00-.048-.671.65.65 0 00-.235-.4.948.948 0 00-.594-.155 1.005 1.005 0 00-.625.165.768.768 0 00-.272.44 3.33 3.33 0 00-.065.712v3.5c-.026.337.047.675.21.982a.77.77 0 00.328.238c.133.052.28.071.424.055a.893.893 0 00.58-.158.704.704 0 00.245-.425 3.86 3.86 0 00.051-.701v-.71h1.641v.648a2.64 2.64 0 01-.567 1.813c-.377.428-1.02.642-1.964.642s-1.658-.229-2.062-.704zm6.832.029c-.415-.448-.622-1.102-.622-1.968v-3.032c0-.857.207-1.505.622-1.945.414-.44 1.107-.659 2.079-.657.965 0 1.654.219 2.069.657.414.44.625 1.088.625 1.945v3.032c0 .857-.21 1.514-.632 1.965-.421.452-1.107.678-2.062.678-.955 0-1.661-.229-2.08-.675zm2.843-.727c.149-.281.216-.589.197-.898V22.1a1.65 1.65 0 00-.193-.88.775.775 0 00-.335-.241.906.906 0 00-.433-.052.917.917 0 00-.434.052.786.786 0 00-.337.241c-.15.275-.217.577-.197.88v3.731c-.02.309.047.617.197.898.095.094.214.17.346.222a1.156 1.156 0 00.843 0 1.02 1.02 0 00.346-.222v-.018zm3.904-6.787h1.766l1.328 5.596 1.36-5.596h1.718L73.35 28h-1.271l-.136-5.613L70.632 28h-1.02l-1.358-5.634L68.128 28h-1.284l.16-8.077zm8.326 0h2.752c1.585 0 2.378.765 2.378 2.294 0 1.464-.835 2.195-2.504 2.193h-.937V28H75.32l.01-8.077zm2.351 3.452c.168.018.338.005.5-.039.16-.044.31-.118.434-.216.195-.273.281-.593.245-.912a2.525 2.525 0 00-.082-.733.594.594 0 00-.125-.222.703.703 0 00-.214-.162 1.757 1.757 0 00-.758-.13h-.659v2.414h.66zm5.229-3.452h1.824L86.606 28h-1.584l-.37-1.862h-1.627L82.645 28h-1.607l1.871-8.077zm1.559 5.28l-.636-3.391-.635 3.39h1.27zm3.648-5.28h1.19l2.275 4.608v-4.608h1.41V28h-1.131l-2.29-4.81V28h-1.457l.003-8.077zm8.177 4.997l-1.892-4.985h1.594l1.155 3.203 1.083-3.203h1.56l-1.869 4.986V28h-1.63v-3.08zm-40.246 6.612v.422h-1.386v3.282h-.581v-3.282h-1.393v-.422h3.36zm4.345 3.704h-.449a.2.2 0 01-.126-.035.194.194 0 01-.074-.085l-.401-.88H57.42l-.4.88a.242.242 0 01-.062.1.207.207 0 01-.126.035h-.448l1.699-3.704h.59l1.72 3.69zm-2.813-1.375h1.603l-.68-1.508a2.699 2.699 0 01-.125-.349c-.024.07-.044.138-.064.197l-.062.155-.672 1.505zm5.741 1.011c.107.005.213.005.32 0 .091-.008.182-.023.271-.044.083-.017.165-.04.245-.067.075-.027.15-.059.227-.091v-.833h-.679a.137.137 0 01-.092-.03.086.086 0 01-.026-.03.074.074 0 01-.008-.037v-.284h1.318v1.42a2.578 2.578 0 01-.716.301c-.14.036-.281.061-.425.077a5.13 5.13 0 01-.496.023 2.59 2.59 0 01-.856-.138 2.09 2.09 0 01-.68-.387 1.79 1.79 0 01-.438-.587 1.851 1.851 0 01-.156-.768 1.92 1.92 0 01.153-.774c.097-.22.247-.42.438-.587.194-.167.425-.297.68-.384.29-.095.6-.142.91-.138.158 0 .316.01.472.032.138.02.274.051.404.094.12.038.233.088.34.147.104.058.203.122.296.193l-.163.229a.142.142 0 01-.055.05.17.17 0 01-.078.02.222.222 0 01-.105-.029 2.113 2.113 0 01-.167-.088 1.504 1.504 0 00-.227-.1 2.127 2.127 0 00-.313-.082 2.614 2.614 0 00-.431-.032 2.009 2.009 0 00-.656.103 1.43 1.43 0 00-.5.293 1.29 1.29 0 00-.315.46 1.732 1.732 0 000 1.235c.074.175.19.333.34.467.139.127.308.227.495.293.216.064.445.089.673.073zm5.415-.058h1.855v.422H68.17v-3.704h.58l-.013 3.282zm3.784.422h-.58v-3.704h.58v3.704zm2.161-3.686c.035.016.065.04.089.067l2.483 2.792a.881.881 0 010-.132v-2.76h.506v3.72h-.292a.275.275 0 01-.126-.021.328.328 0 01-.091-.07l-2.48-2.79v2.88h-.486v-3.704h.302c.033 0 .066.006.095.017zm7.355-.018v.407h-2.058v1.224h1.668v.393h-1.668v1.264h2.058v.407H79.38v-3.695h2.656zM21.162 8.655l25.795 6.324v22.158l-25.795-6.32V8.654zm-1.655-1.888v25.126l29.1 7.135V13.905l-29.1-7.138z"/><path d="M35.104 50.692L6 43.551V18.427l29.104 7.139v25.126z"/><path d="M19.99 8.37l25.458 6.245-10.827 9.35L9.16 17.718 19.99 8.37zm-.483-1.603L6 18.427l29.104 7.14 13.504-11.662-29.1-7.138zm17.234 42.512L48.608 39.03 36.74 36.12v13.16z"/></g></svg>