<svg width="106" height="60" fill="none" xmlns="http://www.w3.org/2000/svg"><g fill="#AFB1B8"><path d="M36.406 49.102c.016 0 .032.003.046.009a.12.12 0 01.039.024l.218.209c-.17.168-.379.303-.614.395-.275.1-.571.149-.87.142-.28.005-.558-.04-.817-.132a1.794 1.794 0 01-.617-.375 1.674 1.674 0 01-.397-.578 1.926 1.926 0 01-.14-.741 1.723 1.723 0 01.573-1.322c.186-.164.409-.292.654-.377.269-.09.555-.136.843-.133.267-.005.533.036.782.121.216.081.414.194.587.334l-.183.223a.176.176 0 01-.046.04.124.124 0 01-.074.017.176.176 0 01-.08-.024l-.097-.06-.137-.075a1.53 1.53 0 00-.43-.133 1.912 1.912 0 00-.325-.023 1.764 1.764 0 00-.605.099 1.38 1.38 0 00-.475.28c-.136.129-.24.28-.308.445a1.5 1.5 0 00-.111.588 1.53 1.53 0 00.111.597 1.256 1.256 0 00.756.718c.178.064.368.096.561.094.111.002.223-.005.333-.019a1.314 1.314 0 00.72-.305.171.171 0 01.103-.038zm6.298-1.048a1.81 1.81 0 01-.147.737 1.594 1.594 0 01-.41.572 1.89 1.89 0 01-.645.376 2.655 2.655 0 01-1.658 0 1.91 1.91 0 01-.64-.377 1.678 1.678 0 01-.415-.578 1.922 1.922 0 010-1.476c.093-.215.234-.413.415-.58.182-.158.4-.282.64-.363a2.612 2.612 0 011.658 0c.242.085.461.214.643.377.18.164.32.358.412.57.101.238.151.49.147.742zm-.572 0a1.566 1.566 0 00-.104-.592 1.22 1.22 0 00-.752-.723 1.916 1.916 0 00-1.205 0 1.295 1.295 0 00-.461.28 1.191 1.191 0 00-.295.443 1.737 1.737 0 000 1.184 1.21 1.21 0 00.756.72c.388.127.816.127 1.205 0 .175-.06.332-.156.46-.276.131-.13.23-.28.292-.444.073-.19.108-.39.104-.592zm4.869.621l.058.133c.021-.048.04-.09.062-.133a1.21 1.21 0 01.071-.13l1.393-2.2c.028-.039.052-.062.08-.07a.373.373 0 01.114-.011h.412v3.579h-.488V47.1a.936.936 0 010-.123L47.3 49.208a.203.203 0 01-.082.081.247.247 0 01-.12.03h-.079a.244.244 0 01-.12-.03.2.2 0 01-.081-.081l-1.443-2.245v2.873h-.471v-3.572h.411a.373.373 0 01.115.011c.034.015.06.04.076.07l1.423 2.202a.76.76 0 01.071.128zm5.243-.178v1.34H51.7v-3.574h1.216c.23-.003.458.023.679.079.176.043.34.12.48.222a.923.923 0 01.272.35c.065.147.096.302.093.458a.993.993 0 01-.395.815c-.14.108-.305.188-.483.237a2.307 2.307 0 01-.657.083l-.66-.01zm0-.383h.66c.143.001.286-.017.423-.055a.922.922 0 00.305-.154.686.686 0 00.25-.538.605.605 0 00-.054-.29.69.69 0 00-.19-.245 1.172 1.172 0 00-.734-.192h-.66v1.474zm7.329 1.729h-.43a.205.205 0 01-.12-.033.223.223 0 01-.072-.083l-.37-.865h-1.863l-.384.865a.204.204 0 01-.19.116h-.432l1.636-3.58h.567l1.658 3.58zm-2.7-1.33h1.538l-.648-1.456a2.43 2.43 0 01-.123-.337l-.063.188c-.019.056-.04.108-.06.151l-.643 1.455zm5.056-2.233c.032.015.06.037.081.064l2.386 2.698v-2.779h.488v3.58h-.272a.265.265 0 01-.112-.022.298.298 0 01-.088-.066L62.03 47.06a.974.974 0 010 .123v2.659h-.488v-3.579h.289c.033 0 .067.005.098.017zm6.974 2.139v1.421h-.545v-1.42l-1.508-2.156h.488a.197.197 0 01.117.03c.03.024.055.051.074.081l.943 1.391c.038.06.071.114.098.166.028.052.05.102.069.151l.07-.154c.027-.056.058-.11.093-.163l.93-1.4a.376.376 0 01.07-.076.182.182 0 01.118-.035h.493l-1.51 2.165zm-22.172-8.163c.237.026.477.048.72.067 3.679-1.43 6.791-3.77 8.948-6.729 2.156-2.958 3.261-6.403 3.177-9.904l-4.054-3.522c.824 3.727.438 7.58-1.114 11.128-1.553 3.548-4.21 6.65-7.677 8.96z"/><path d="M45.284 40.092l.109.02c3.704-2.303 6.527-5.517 8.106-9.228 1.579-3.711 1.84-7.748.75-11.59l-5.775-5.017c2.335 4.124 3.276 8.74 2.71 13.31-.564 4.57-2.61 8.906-5.9 12.505zm19.584-12.265c-.981 3.846-3.364 7.315-6.794 9.892a21.629 21.629 0 01-3.229 2.014c2.794-.714 5.361-1.975 7.505-3.687 2.144-1.712 3.807-3.828 4.86-6.187l-2.342-2.032z"/><path d="M63.949 27.26l-3.334-2.897c-.064 3.303-1.145 6.531-3.13 9.349-1.986 2.817-4.804 5.121-8.16 6.672h.016c.748 0 1.495-.039 2.238-.116 3.137-1.113 5.909-2.883 8.067-5.152 2.159-2.27 3.637-4.969 4.303-7.856zM45.766 12.161l-3.978-3.46c-3.556 1.193-6.614 3.292-8.775 6.021-2.16 2.73-3.322 5.962-3.333 9.274.013 3.66 1.431 7.212 4.03 10.093 2.597 2.881 6.227 4.927 10.314 5.814 3.648-3.862 5.785-8.634 6.098-13.623.313-4.989-1.213-9.935-4.356-14.119zM73.14 26.728c-.014-4.343-2.006-8.504-5.54-11.575-3.534-3.07-8.324-4.8-13.322-4.813a21.18 21.18 0 00-6.753 1.092L71.88 32.593a14.352 14.352 0 001.26-5.865z"/></g></svg>