<svg width="85" height="42" fill="none" xmlns="http://www.w3.org/2000/svg"><path d="M13.146 13.103h-.003c-2.398 0-4.342 1.728-4.342 3.859v.002c0 2.131 1.944 3.859 4.342 3.859h.003c2.398 0 4.342-1.728 4.342-3.859v-.002c0-2.131-1.944-3.859-4.342-3.859zm32.049-1.233c-.007-2.96-1.333-5.798-3.688-7.89C39.153 1.885 35.96.706 32.63.7c-3.332.006-6.526 1.184-8.882 3.277-2.356 2.094-3.683 4.932-3.69 7.893v16.322s25.134-2.487 25.137-16.32v-.002zM0 33.55c.006 2.06.93 4.033 2.568 5.49 1.638 1.456 3.859 2.278 6.176 2.284 2.317-.006 4.537-.827 6.176-2.283 1.638-1.456 2.562-3.43 2.568-5.488V22.195S0 23.927 0 33.55zm8.744 2.035c-.453 0-.895-.12-1.272-.343a2.108 2.108 0 01-.843-.913 1.825 1.825 0 01-.13-1.176c.088-.395.306-.757.626-1.042a2.39 2.39 0 011.172-.557 2.558 2.558 0 011.323.116c.419.154.777.415 1.028.75.252.334.386.727.386 1.13.001.268-.057.533-.172.781a2.036 2.036 0 01-.496.663c-.212.19-.465.34-.744.443a2.54 2.54 0 01-.878.156v-.008zm15.986-3.644v4.266h-.879v-4.266h.88zm1.7 1.823v.685h-1.94v-.685h1.94zm.204-1.823v.689H24.49v-.689h2.145zm4.014 2.034v.202c0 .324-.044.615-.132.873a1.92 1.92 0 01-.372.659c-.16.18-.351.317-.574.413a1.83 1.83 0 01-.735.144 1.84 1.84 0 01-.736-.144 1.648 1.648 0 01-.574-.413 1.93 1.93 0 01-.378-.66 2.696 2.696 0 01-.132-.872v-.202c0-.327.044-.618.132-.873a1.93 1.93 0 01.372-.66 1.63 1.63 0 01.574-.416c.223-.095.468-.143.736-.143.27 0 .514.048.735.143.223.096.414.235.574.416.162.182.287.402.375.66.09.255.135.546.135.873zm-.888.202v-.208c0-.227-.02-.426-.061-.598a1.295 1.295 0 00-.182-.434.785.785 0 00-.293-.263.838.838 0 00-.395-.091c-.149 0-.28.03-.396.09a.792.792 0 00-.29.264 1.338 1.338 0 00-.178.434 2.593 2.593 0 00-.062.598v.208c0 .224.02.424.062.597.04.172.101.318.181.437a.81.81 0 00.293.267c.115.06.247.09.396.09.148 0 .28-.03.395-.09a.786.786 0 00.29-.267 1.37 1.37 0 00.179-.437c.04-.173.061-.373.061-.597zm3.742.914a.566.566 0 00-.035-.205.387.387 0 00-.124-.17 1.092 1.092 0 00-.254-.156 3.623 3.623 0 00-.425-.158 5.377 5.377 0 01-.551-.21 2.26 2.26 0 01-.457-.273 1.228 1.228 0 01-.31-.366 1.01 1.01 0 01-.112-.484 1 1 0 01.117-.483c.078-.146.188-.271.328-.375.141-.105.307-.187.498-.243a2.25 2.25 0 01.636-.085c.315 0 .589.056.823.17.235.113.416.268.545.466.131.197.197.422.197.676h-.873a.658.658 0 00-.08-.328.535.535 0 00-.234-.225.835.835 0 00-.393-.082.908.908 0 00-.38.07.507.507 0 00-.229.184.455.455 0 00-.076.258.38.38 0 00.053.197.595.595 0 00.164.164c.072.05.16.098.266.143.106.045.228.089.367.132.232.07.436.15.612.237.178.088.326.187.445.296.12.11.21.234.27.372.06.139.09.296.09.472a1.024 1.024 0 01-.422.87c-.136.102-.3.179-.489.232-.189.052-.4.079-.635.079a2.41 2.41 0 01-.624-.082 1.894 1.894 0 01-.56-.255 1.286 1.286 0 01-.398-.434c-.1-.176-.15-.384-.15-.624h.882c0 .133.02.245.062.337a.563.563 0 00.172.223.744.744 0 00.27.123c.105.025.22.038.346.038a.937.937 0 00.375-.065.462.462 0 00.293-.436zm3.383-3.15v4.266h-.875v-4.266h.875zm1.313 0v.689h-3.48v-.689h3.48zm3.363 3.58v.686h-2.27v-.685h2.27zm-1.983-3.58v4.266h-.88v-4.266h.88zm1.687 1.738v.668h-1.974v-.668h1.974zm.293-1.738v.689h-2.267v-.689h2.267zm.516 0h1.59c.327 0 .607.05.842.147.236.097.417.242.544.434.127.19.19.426.19.706 0 .228-.038.424-.116.588a1.103 1.103 0 01-.326.408 1.683 1.683 0 01-.489.257l-.278.147h-1.383l-.006-.686h1.029a.805.805 0 00.383-.082.538.538 0 00.229-.228.704.704 0 00.079-.34.771.771 0 00-.076-.355.514.514 0 00-.232-.228.853.853 0 00-.39-.08h-.711v3.578h-.88v-4.266zm2.385 4.266l-.973-1.901.929-.006.984 1.866v.041h-.94zm4.614-1.52h-1.087V34h1.087a.89.89 0 00.41-.082.525.525 0 00.232-.234.858.858 0 000-.691.591.591 0 00-.232-.264.76.76 0 00-.41-.1h-.782v3.577h-.88V31.94h1.662c.334 0 .62.061.858.182.24.12.424.284.551.495.127.211.19.452.19.724 0 .275-.063.514-.19.715-.127.2-.31.356-.55.465-.239.11-.525.165-.86.165zm5.068.835v.685h-2.27v-.685h2.27zm-1.983-3.58v4.265h-.879v-4.266h.879zm1.687 1.737v.668h-1.974v-.668h1.974zm.293-1.738v.689h-2.267v-.689h2.267zm2.482 0v4.266h-.876v-4.266h.876zm1.312 0v.689h-3.48v-.689h3.48zm3.364 3.58v.686h-2.27v-.685h2.27zm-1.984-3.58v4.266h-.879v-4.266h.88zM61 33.68v.668h-1.975v-.668H61zm.293-1.738v.689h-2.268v-.689h2.268zm.515 0H63.4c.326 0 .607.05.84.147.237.097.419.242.546.434.127.19.19.426.19.706 0 .228-.039.424-.117.588a1.103 1.103 0 01-.325.408 1.685 1.685 0 01-.49.257l-.278.147h-1.383l-.005-.686h1.028a.805.805 0 00.384-.082.538.538 0 00.228-.228.704.704 0 00.08-.34.771.771 0 00-.077-.355.514.514 0 00-.231-.228.854.854 0 00-.39-.08h-.712v3.578h-.879v-4.266zm2.385 4.266l-.973-1.901.93-.006.983 1.866v.041h-.94zm3.68-1.116a.566.566 0 00-.035-.205.387.387 0 00-.123-.17 1.092 1.092 0 00-.255-.156 3.623 3.623 0 00-.425-.158 5.377 5.377 0 01-.55-.21 2.26 2.26 0 01-.458-.273 1.228 1.228 0 01-.31-.366 1.01 1.01 0 01-.112-.484 1 1 0 01.117-.483 1.13 1.13 0 01.329-.375c.14-.105.306-.187.498-.243.193-.057.405-.085.635-.085.315 0 .59.056.823.17.235.113.416.268.545.466.131.197.197.422.197.676h-.873a.658.658 0 00-.08-.328.535.535 0 00-.234-.225.835.835 0 00-.392-.082.908.908 0 00-.381.07.507.507 0 00-.229.184.455.455 0 00-.076.258.38.38 0 00.053.197.595.595 0 00.164.164c.072.05.161.098.267.143.105.045.227.089.366.132.232.07.436.15.612.237.178.088.326.187.445.296.12.11.21.234.27.372.06.139.09.296.09.472a1.025 1.025 0 01-.421.87c-.137.102-.3.179-.49.232-.189.052-.4.079-.635.079-.211 0-.42-.028-.624-.082a1.894 1.894 0 01-.56-.255 1.286 1.286 0 01-.398-.434c-.1-.176-.15-.384-.15-.624h.882c0 .133.02.245.062.337a.563.563 0 00.172.223.744.744 0 00.27.123c.106.025.22.038.346.038a.937.937 0 00.375-.065.462.462 0 00.293-.436z" fill="#2196F3"/></svg>