<svg width="106" height="60" fill="none" xmlns="http://www.w3.org/2000/svg"><g fill="#AFB1B8"><path fill-rule="evenodd" clip-rule="evenodd" d="M50.114 5.935h-.137c-.21-.013-.42-.018-.63-.023h-.455c-.397 0-.802.01-1.204.03a.625.625 0 00-.091 0A28.275 28.275 0 0037.08 8.625l-.432.208v22.142l1.012-.344c.888-.305 1.834-.58 2.813-.834a34.329 34.329 0 018.095-1.075v2.909a23.25 23.25 0 00-1.065.03h-.084a32.36 32.36 0 00-6.228.956 31.635 31.635 0 00-7.42 2.892V7.112a29.727 29.727 0 017.785-3.166A29.793 29.793 0 0148.892 3h.427c.511.013 1.01.036 1.478.071 1.233.087 2.456.282 3.655.583v2.863a22.623 22.623 0 00-3.541-.534l-.073-.006c-.247-.021-.494-.042-.724-.042zm5.039 2.926c.635.049 1.293.072 1.958.072a31.467 31.467 0 007.713-.99A31.777 31.777 0 0072.24 5.05v27.89a29.815 29.815 0 01-7.786 3.166 29.943 29.943 0 01-7.337.944 22.405 22.405 0 01-5.565-.656V8.322c.43.1.873.191 1.323.267.739.125 1.518.216 2.277.272zm14.194.217l-1.012.34a44.2 44.2 0 01-2.813.842 34.263 34.263 0 01-8.406 1.078c-.66 0-1.267-.018-1.854-.056l-.807-.053v22.777l.693.06c.642.057 1.305.085 1.973.085a26.884 26.884 0 006.62-.857 27.764 27.764 0 005.174-1.86l.432-.208V9.078z"/><path d="M35.737 45.212a1.492 1.492 0 00-1.126-.455 1.676 1.676 0 00-.65.122 1.464 1.464 0 00-.832.842c-.08.2-.119.413-.116.628v3.794a1.79 1.79 0 00.149.778c.09.194.219.368.38.508.151.128.329.22.52.27.185.052.376.078.567.079.211.002.42-.043.612-.132a1.601 1.601 0 00.96-1.465v-.425h-.993v.338a.88.88 0 01-.058.339.607.607 0 01-.144.213.697.697 0 01-.415.145.504.504 0 01-.465-.203.898.898 0 01-.132-.509v-3.537c-.006-.196.036-.39.122-.567a.507.507 0 01.485-.229.527.527 0 01.443.214.806.806 0 01.164.508v.328h.982v-.386a1.79 1.79 0 00-.121-.664 1.563 1.563 0 00-.332-.534zm5.892-.043a1.765 1.765 0 00-1.128-.417c-.202 0-.403.037-.592.107A1.559 1.559 0 0039 45.7c-.1.231-.15.482-.145.734v3.64c-.007.255.043.51.145.744.09.196.22.37.384.509.152.14.33.25.524.32a1.711 1.711 0 001.72-.32c.158-.142.285-.315.374-.509.102-.234.151-.489.145-.745v-3.639a1.77 1.77 0 00-.145-.735 1.641 1.641 0 00-.374-.531zm-.463 4.905a.656.656 0 01-.197.527.727.727 0 01-.934 0 .65.65 0 01-.197-.527v-3.639a.653.653 0 01.197-.526.726.726 0 01.934 0 .652.652 0 01.197.526v3.64zm8.201 1.626v-6.89h-.953l-1.253 3.647h-.017L45.88 44.81h-.943v6.89h.984v-4.191h.018l.963 2.962h.491l.971-2.962h.018v4.19h.984zm5.591-6.406c-.151-.17-.343-.3-.556-.377a2.184 2.184 0 00-.714-.107h-1.462v6.89h.982v-2.691h.505a1.8 1.8 0 00.886-.188 1.43 1.43 0 00.539-.527c.113-.183.19-.387.225-.6a4.9 4.9 0 00.053-.783 3.919 3.919 0 00-.096-.984 1.468 1.468 0 00-.362-.633zm-.506 2.1a.866.866 0 01-.091.358.552.552 0 01-.253.242 1.007 1.007 0 01-.463.087h-.448v-2.342h.506a.941.941 0 01.443.086.556.556 0 01.23.254 1 1 0 01.086.384v.458c0 .16.01.325 0 .473h-.01zm5.156-2.584h-.805l-1.518 6.89h.982l.288-1.48h1.339l.288 1.48h.981l-1.555-6.89zm-.906 4.471l.483-2.497h.018l.48 2.497h-.981zm7.248-.321h-.018l-1.482-4.15h-.944v6.89h.981v-4.143h.02l1.5 4.142h.924V44.81h-.981v4.15zm5.998-4.15l-.79 2.74h-.02l-.79-2.74H69.31l1.348 3.978v2.911h.982v-2.911l1.348-3.977h-1.04zM33 53.644h.473v1.328h.321v-1.328h.47v-.272H33v.272zm3.977-.272l-.62 1.6h.341l.132-.364h.638l.136.364h.35l-.636-1.6h-.341zm-.05.966l.217-.592.217.592h-.435zm3.981.044h.37v.206a.613.613 0 01-.38.135.404.404 0 01-.34-.153.67.67 0 01-.118-.417c0-.356.154-.534.46-.534a.337.337 0 01.362.255l.316-.062c-.068-.312-.293-.47-.678-.47a.804.804 0 00-.559.206.78.78 0 00-.23.615.872.872 0 00.205.6.776.776 0 00.607.235.96.96 0 00.678-.255v-.63h-.693v.27zm4.015-1.01h-.324v1.6h1.12v-.273h-.796v-1.327zm3.395 0h-.324v1.6h.324v-1.6zm3.318 1.068l-.655-1.068h-.313v1.6h.3v-1.046l.643 1.046h.322v-1.6h-.297v1.068zm3.001-.173h.797v-.272h-.797v-.35h.857v-.273h-1.181v1.6h1.214v-.273h-.89v-.432zm7.275-.264h-.63v-.63h-.32v1.599h.32v-.7h.63v.7h.322v-1.6h-.322v.63zm3.018.264h.8v-.272h-.8v-.35h.86v-.273h-1.18v1.6h1.212v-.273h-.89v-.432zm4.093 0c.279-.043.42-.19.42-.445a.383.383 0 00-.157-.356.904.904 0 00-.468-.094h-.678v1.6h.322v-.669h.063a.428.428 0 01.2.036.336.336 0 01.114.117l.349.508h.384l-.195-.313a1.114 1.114 0 00-.354-.384zm-.324-.22h-.237v-.403h.253a.838.838 0 01.326.038.208.208 0 01.046.256.208.208 0 01-.061.07.91.91 0 01-.327.038zm3.411.22h.796v-.272h-.796v-.35h.86v-.273h-1.184v1.6H73v-.273h-.89v-.432z"/></g></svg>