<svg width="106" height="60" fill="none" xmlns="http://www.w3.org/2000/svg"><g fill="#AFB1B8"><path d="M26.757 44.735c.244.276.373.622.367.977a1.43 1.43 0 01-.131.677 1.557 1.557 0 01-.438.557 2.627 2.627 0 01-1.651.451H22v-6.191h2.844a2.593 2.593 0 011.576.41c.184.142.33.32.425.52.096.202.139.42.127.64.016.34-.1.677-.33.946a1.57 1.57 0 01-.866.484c.385.064.733.252.98.53zm-3.406-.934h1.216c.276.018.55-.055.773-.206a.738.738 0 00.207-.274.68.68 0 00.054-.33.701.701 0 00-.055-.33.76.76 0 00-.203-.276 1.255 1.255 0 00-.796-.209H23.35v1.625zm2.108 2.374a.776.776 0 00.224-.284.711.711 0 00.063-.345.722.722 0 00-.066-.349.788.788 0 00-.228-.286 1.338 1.338 0 00-.826-.224h-1.275v1.703h1.292c.29.015.578-.06.816-.215zm7.111 1.222l-1.581-2.42h-.595v2.42h-1.361v-6.192h2.577a2.698 2.698 0 011.793.527c.36.336.578.779.613 1.248a1.86 1.86 0 01-.421 1.314 2.147 2.147 0 01-1.229.629l1.685 2.474h-1.48zm-2.176-3.264h1.113c.773 0 1.16-.312 1.16-.937a.852.852 0 00-.063-.376.917.917 0 00-.221-.32 1.282 1.282 0 00-.876-.251h-1.126l.013 1.884zm9.616 2.017h-2.712l-.479 1.247h-1.427l2.49-6.122h1.544l2.48 6.122H40.48l-.469-1.246zm-.363-.937l-.991-2.613-.991 2.613h1.982zm9.675 2.184h-1.35l-3.03-4.21v4.21h-1.348v-6.192h1.348l3.03 4.235v-4.235h1.35v6.192zm7.711-1.482c-.28.467-.705.848-1.223 1.092a4.288 4.288 0 01-1.9.39h-2.404v-6.192h2.405a4.373 4.373 0 011.9.382c.517.238.943.615 1.222 1.08.278.503.423 1.06.423 1.623 0 .565-.145 1.121-.423 1.625zm-1.546-.148c.385-.412.597-.936.597-1.478a2.16 2.16 0 00-.597-1.477 2.488 2.488 0 00-1.692-.527h-.938v4.008h.938a2.488 2.488 0 001.692-.526zm-14.631-39s17.438 6.028 17.069 14.75v14.755s-17.426-6.031-17.063-14.754l-.006-14.751zM73.46 32.818c3.294-2.075 7.103-3.36 11.08-3.738v-4.62c-4.582 1.618-8.47 4.55-11.08 8.358z"/><path d="M71.482 34.21c2.695-4.97 7.368-8.806 13.058-10.717V10.185s-24.835 8.587-24.31 21.009V52.2s1.107-.384 2.848-1.104c0-.671 0-1.349.08-2.03.513-5.767 3.507-11.11 8.324-14.857z"/><path d="M69.12 42.013a20.05 20.05 0 01.868-4.301c-2.998 3.235-4.815 7.25-5.192 11.478-.037.4-.057.799-.067 1.21a74.697 74.697 0 004.777-2.304 19.937 19.937 0 01-.386-6.083zm.988.076a19.051 19.051 0 00.307 5.508c6.785-3.718 14.41-9.462 14.115-16.403v-.605c-4.848.497-9.383 2.437-12.91 5.523a19.259 19.259 0 00-1.513 5.977z"/></g></svg>