<svg width="106" height="60" viewBox="0 0 106 60" fill="none" xmlns="http://www.w3.org/2000/svg">
<g id="Logo">
<g id="group">
<g id="Object">
<path id="Vector" d="M36.4062 49.1018C36.4221 49.1022 36.4378 49.1053 36.4523 49.111C36.4668 49.1167 36.4799 49.1248 36.4907 49.135L36.7089 49.3435C36.5395 49.5122 36.3303 49.6472 36.0954 49.7391C35.8203 49.8395 35.5239 49.8879 35.2257 49.8813C34.9454 49.8863 34.667 49.8411 34.4077 49.7486C34.1738 49.6636 33.9637 49.536 33.7915 49.3743C33.6158 49.2065 33.4805 49.01 33.3935 48.7962C33.2982 48.5578 33.2511 48.3069 33.2544 48.0546C33.2505 47.8007 33.3014 47.5483 33.4044 47.3107C33.4996 47.0955 33.6433 46.8989 33.827 46.7326C34.0132 46.5694 34.2359 46.4412 34.4813 46.3558C34.7499 46.2654 35.0358 46.2203 35.3238 46.2232C35.5913 46.2175 35.8574 46.2586 36.1063 46.344C36.3222 46.4254 36.5205 46.5384 36.6925 46.6781L36.5098 46.9008C36.4972 46.9165 36.4815 46.9301 36.4635 46.941C36.4419 46.9539 36.4159 46.9598 36.3899 46.9576C36.3616 46.9559 36.3343 46.9478 36.3108 46.9339L36.2126 46.8747L36.0763 46.7989C36.0175 46.7707 35.9564 46.7462 35.8936 46.7255C35.8128 46.7003 35.7298 46.6805 35.6455 46.6662C35.5385 46.6491 35.4299 46.6412 35.3211 46.6425C35.1137 46.6403 34.9079 46.6741 34.7158 46.742C34.5367 46.805 34.3749 46.9003 34.2414 47.0216C34.1054 47.1507 34.0007 47.3021 33.9333 47.467C33.8565 47.6556 33.8187 47.8545 33.8215 48.0546C33.8182 48.2578 33.8561 48.4598 33.9333 48.6516C33.9998 48.8151 34.1027 48.9656 34.2359 49.0947C34.3608 49.215 34.5156 49.309 34.6885 49.3695C34.8665 49.4336 35.0575 49.4659 35.2502 49.4643C35.3615 49.4658 35.4727 49.4594 35.5828 49.4453C35.7626 49.4263 35.9351 49.372 36.0872 49.2866C36.1635 49.2429 36.2356 49.1937 36.3026 49.1397C36.3306 49.1165 36.3675 49.103 36.4062 49.1018Z" fill="#AFB1B8"/>
<path id="Vector_2" d="M42.7043 48.0542C42.7077 48.3055 42.6578 48.5553 42.5571 48.791C42.4682 49.0047 42.3283 49.1997 42.1464 49.363C41.9645 49.5264 41.7449 49.6543 41.502 49.7386C40.9682 49.9155 40.3781 49.9155 39.8443 49.7386C39.6029 49.6531 39.3847 49.5248 39.2036 49.3619C39.0218 49.1956 38.8808 48.9989 38.7891 48.7838C38.5927 48.3067 38.5927 47.7851 38.7891 47.3079C38.8822 47.0927 39.023 46.8955 39.2036 46.7275C39.3862 46.5697 39.6043 46.4464 39.8443 46.365C40.3774 46.185 40.9688 46.185 41.502 46.365C41.7442 46.4505 41.9633 46.5788 42.1454 46.7417C42.3249 46.9064 42.4648 47.1005 42.5571 47.3127C42.6581 47.5499 42.708 47.8013 42.7043 48.0542ZM42.1318 48.0542C42.1361 47.8531 42.101 47.6528 42.0282 47.4619C41.9671 47.2984 41.8677 47.1475 41.7364 47.0189C41.6086 46.8972 41.4512 46.8017 41.2757 46.7394C40.8878 46.6098 40.4584 46.6098 40.0706 46.7394C39.895 46.8017 39.7376 46.8972 39.6098 47.0189C39.4767 47.1468 39.3763 47.2978 39.3154 47.4619C39.1766 47.8476 39.1766 48.2608 39.3154 48.6464C39.3769 48.8103 39.4772 48.9612 39.6098 49.0895C39.7378 49.2104 39.8952 49.3051 40.0706 49.3666C40.4591 49.4929 40.8871 49.4929 41.2757 49.3666C41.451 49.3051 41.6084 49.2104 41.7364 49.0895C41.8672 48.9605 41.9664 48.8097 42.0282 48.6464C42.1013 48.4556 42.1364 48.2553 42.1318 48.0542Z" fill="#AFB1B8"/>
<path id="Vector_3" d="M47.0013 48.6751L47.0585 48.8077C47.0803 48.7603 47.0994 48.7177 47.1212 48.6751C47.142 48.6305 47.1657 48.587 47.1921 48.5448L48.5853 46.3442C48.6126 46.3063 48.6371 46.2826 48.6644 46.2755C48.7015 46.2657 48.7402 46.2617 48.7789 46.2637H49.1906V49.8429H48.7026V47.2112C48.7026 47.178 48.7026 47.1401 48.7026 47.0998C48.6999 47.0588 48.6999 47.0177 48.7026 46.9767L47.3012 49.208C47.2834 49.2415 47.2549 49.2697 47.2191 49.2895C47.1833 49.3092 47.1418 49.3196 47.0994 49.3194H47.0203C46.9779 49.3199 46.9362 49.3096 46.9003 49.2899C46.8645 49.2701 46.8361 49.2416 46.8186 49.208L45.3763 46.9625C45.3763 47.0051 45.3763 47.0477 45.3763 47.0904C45.3763 47.133 45.3763 47.1709 45.3763 47.2041V49.8358H44.9046V46.2637H45.3163C45.355 46.2617 45.3937 46.2657 45.4308 46.2755C45.4646 46.2901 45.4916 46.3143 45.5072 46.3442L46.9304 48.5472C46.9583 48.5879 46.9821 48.6307 47.0013 48.6751Z" fill="#AFB1B8"/>
<path id="Vector_4" d="M52.2443 48.4972V49.8379H51.699V46.2635H52.915C53.1445 46.2597 53.3734 46.2861 53.5939 46.3417C53.7704 46.3852 53.934 46.4611 54.0737 46.5644C54.1948 46.6612 54.2882 46.7812 54.3464 46.9149C54.4107 47.0608 54.4422 47.216 54.4391 47.3721C54.4415 47.5289 54.4072 47.6844 54.3382 47.8293C54.2726 47.9664 54.1719 48.0887 54.0437 48.1869C53.9038 48.2945 53.7394 48.3752 53.5612 48.4238C53.3489 48.4827 53.1269 48.5107 52.9041 48.5067L52.2443 48.4972ZM52.2443 48.1135H52.9041C53.0474 48.1151 53.1901 48.0967 53.3267 48.059C53.4394 48.0261 53.5432 47.9737 53.632 47.9051C53.714 47.8395 53.7774 47.7585 53.8174 47.6682C53.8621 47.5727 53.8843 47.4704 53.8829 47.3674C53.8892 47.268 53.8706 47.1686 53.8282 47.0762C53.7858 46.9837 53.7207 46.9004 53.6375 46.832C53.4292 46.6907 53.1676 46.6223 52.9041 46.6402H52.2443V48.1135Z" fill="#AFB1B8"/>
<path id="Vector_5" d="M59.573 49.8428H59.1422C59.099 49.8442 59.0566 49.8325 59.0223 49.8096C58.9913 49.7873 58.967 49.7588 58.9514 49.7267L58.5806 48.862H56.7184L56.334 49.7267C56.3198 49.7583 56.2963 49.7861 56.2658 49.8072C56.2312 49.8315 56.1876 49.8441 56.1431 49.8428H55.7123L57.3482 46.2632H57.9153L59.573 49.8428ZM56.8738 48.5137H58.4115L57.7626 47.0568C57.713 46.9472 57.6721 46.8348 57.64 46.7204L57.5772 46.9076C57.5582 46.9644 57.5363 47.0165 57.5173 47.0592L56.8738 48.5137Z" fill="#AFB1B8"/>
<path id="Vector_6" d="M61.9287 46.2798C61.9613 46.2954 61.9893 46.3173 62.0105 46.3438L64.3962 49.0421C64.3962 48.9994 64.3962 48.9568 64.3962 48.9165C64.3962 48.8762 64.3962 48.836 64.3962 48.7981V46.2633H64.8842V49.8428H64.6116C64.5728 49.8438 64.5344 49.8365 64.4998 49.8215C64.4661 49.8044 64.4365 49.7819 64.4125 49.7551L62.0296 47.0592C62.0322 47.1003 62.0322 47.1414 62.0296 47.1824C62.0296 47.2227 62.0296 47.2582 62.0296 47.2914V49.8428H61.5416V46.2633H61.8306C61.8643 46.2624 61.8978 46.2681 61.9287 46.2798Z" fill="#AFB1B8"/>
<path id="Vector_7" d="M68.903 48.4188V49.8402H68.3577V48.4188L66.85 46.2631H67.338C67.3801 46.2609 67.4216 46.2718 67.4553 46.2938C67.4849 46.3168 67.5098 46.3441 67.5289 46.3744L68.4722 47.765C68.5104 47.8242 68.5431 47.8787 68.5704 47.9308C68.5977 47.9829 68.6195 48.0327 68.6386 48.0824L68.7094 47.9284C68.7359 47.8721 68.7669 47.8175 68.8021 47.765L69.7319 46.3649C69.7514 46.337 69.7753 46.3115 69.8028 46.2891C69.8351 46.2646 69.8771 46.2518 69.92 46.2536H70.4135L68.903 48.4188Z" fill="#AFB1B8"/>
<path id="Vector_8" d="M46.7313 40.2563C46.9685 40.2823 47.2085 40.3036 47.4511 40.3226C51.13 38.8927 54.2421 36.5525 56.3986 33.5943C58.5551 30.6362 59.6602 27.1914 59.5758 23.6905L55.5215 20.168C56.3458 23.8953 55.9602 27.7483 54.4078 31.2961C52.8554 34.8438 50.1975 37.9462 46.7313 40.2563Z" fill="#AFB1B8"/>
<path id="Vector_9" d="M45.2836 40.0924L45.3927 40.1113C49.0966 37.8095 51.9205 34.5952 53.4992 30.884C55.0779 27.1728 55.3388 23.1355 54.2483 19.294L48.4736 14.2769C50.8093 18.4009 51.7495 23.0163 51.1847 27.5863C50.62 32.1563 48.5737 36.4931 45.2836 40.0924Z" fill="#AFB1B8"/>
<path id="Vector_10" d="M64.8679 27.8267C63.8868 31.6732 61.504 35.1424 58.0735 37.719C57.0716 38.4756 55.9909 39.1497 54.8453 39.7325C57.6388 39.0191 60.2064 37.7579 62.3502 36.0461C64.4939 34.3342 66.1566 32.2175 67.2099 29.8591L64.8679 27.8267Z" fill="#AFB1B8"/>
<path id="Vector_11" d="M63.949 27.2604L60.6146 24.3633C60.5508 27.6664 59.47 30.8944 57.4845 33.7117C55.499 36.5291 52.6813 38.833 49.3242 40.3841H49.3406C50.0887 40.3838 50.8362 40.3451 51.579 40.268C54.7164 39.1554 57.488 37.3853 59.6464 35.1156C61.8049 32.8459 63.283 30.1472 63.949 27.2604Z" fill="#AFB1B8"/>
<path id="Vector_12" d="M45.7662 12.1612L41.7883 8.7002C38.2322 9.89415 35.1737 11.9931 33.0133 14.7223C30.8529 17.4515 29.6911 20.6838 29.68 23.9961V23.9961C29.6933 27.6562 31.1112 31.2079 33.7092 34.089C36.3072 36.9702 39.937 39.0162 44.024 39.9033C47.6724 36.0412 49.8085 31.269 50.1218 26.28C50.4351 21.291 48.9094 16.3452 45.7662 12.1612Z" fill="#AFB1B8"/>
<path id="Vector_13" d="M73.14 26.7277C73.1256 22.3852 71.1338 18.2242 67.5996 15.1535C64.0655 12.0829 59.2763 10.3524 54.2783 10.3399C51.9687 10.3378 49.6788 10.7081 47.5248 11.4319L71.8804 32.593C72.7143 30.7225 73.1414 28.7337 73.14 26.7277Z" fill="#AFB1B8"/>
</g>
</g>
</g>
</svg>
