<svg width="106" height="60" viewBox="0 0 106 60" fill="none" xmlns="http://www.w3.org/2000/svg">
<g id="Logo">
<g id="group">
<path id="Vector" d="M26.7569 44.7354C27.0006 45.0115 27.1304 45.3573 27.1236 45.7123C27.136 45.9439 27.0914 46.175 26.993 46.3886C26.8947 46.6022 26.7451 46.7929 26.5554 46.9464C26.082 47.2737 25.4956 47.4337 24.9037 47.397H22V41.2056H24.8442C25.4057 41.1714 25.9626 41.3168 26.42 41.6169C26.6036 41.7577 26.7491 41.9356 26.8448 42.1367C26.9406 42.3377 26.984 42.5564 26.9716 42.7754C26.9883 43.1169 26.8712 43.4527 26.6413 43.7221C26.4206 43.9681 26.1156 44.1386 25.7758 44.206C26.161 44.2704 26.5087 44.458 26.7569 44.7354ZM23.3511 43.8007H24.5667C24.843 43.8194 25.1174 43.7464 25.3397 43.5951C25.431 43.5193 25.502 43.4254 25.5473 43.3205C25.5925 43.2156 25.6108 43.1025 25.6007 42.9901C25.6093 42.8781 25.5906 42.7658 25.5461 42.6612C25.5015 42.5566 25.4322 42.4623 25.343 42.3852C25.1141 42.2296 24.8312 42.1554 24.5469 42.1765H23.3511V43.8007ZM25.4587 46.1751C25.5562 46.0976 25.6329 46.0004 25.6828 45.8913C25.7326 45.7822 25.7543 45.664 25.7461 45.546C25.7535 45.4265 25.7309 45.3071 25.6799 45.197C25.6289 45.0869 25.551 44.9889 25.4521 44.9108C25.2142 44.7493 24.9217 44.6701 24.6262 44.687H23.3511V46.3898H24.6427C24.9334 46.4052 25.2212 46.3295 25.4587 46.1751Z" fill="#AFB1B8"/>
<path id="Vector_2" d="M32.5709 47.3968L30.9886 44.9771H30.394V47.3968H29.033V41.2054H31.6096C32.2591 41.1638 32.9012 41.3522 33.4034 41.7316C33.7635 42.0677 33.9808 42.5105 34.0159 42.9802C34.051 43.4499 33.9018 43.9157 33.595 44.2935C33.2771 44.627 32.8428 44.8493 32.3661 44.9227L34.0508 47.3968H32.5709ZM30.394 44.1332H31.5072C32.2802 44.1332 32.6667 43.8207 32.6667 43.1956C32.6746 43.0679 32.6534 42.9402 32.6045 42.8204C32.5556 42.7007 32.48 42.5915 32.3826 42.4999C32.1383 42.3139 31.8237 42.2237 31.5072 42.2489H30.3807L30.394 44.1332Z" fill="#AFB1B8"/>
<path id="Vector_3" d="M40.0102 46.1506H37.2981L36.8191 47.3968H35.392L37.8828 41.2749H39.4255L41.9063 47.3968H40.4793L40.0102 46.1506ZM39.6468 45.213L38.6558 42.5997L37.6648 45.213H39.6468Z" fill="#AFB1B8"/>
<path id="Vector_4" d="M49.3224 47.3965H47.9713L44.9421 43.1862V47.3965H43.5943V41.2051H44.9421L47.9713 45.4396V41.2051H49.3224V47.3965Z" fill="#AFB1B8"/>
<path id="Vector_5" d="M57.0326 45.9148C56.7532 46.3822 56.3276 46.7625 55.8103 47.0067C55.2222 47.2786 54.5695 47.4127 53.9109 47.3968H51.506V41.2054H53.9109C54.5684 41.1896 55.2202 41.3204 55.8103 41.5865C56.3275 41.8251 56.7536 42.2016 57.0326 42.6663C57.3107 43.1698 57.4556 43.7262 57.4556 44.2905C57.4556 44.8548 57.3107 45.4112 57.0326 45.9148ZM55.4866 45.7665C55.8722 45.3552 56.0842 44.8311 56.0842 44.289C56.0842 43.7469 55.8722 43.2228 55.4866 42.8115C55.0205 42.4389 54.4127 42.2498 53.7952 42.2852H52.8571V46.2928H53.7952C54.4127 46.3282 55.0205 46.1391 55.4866 45.7665Z" fill="#AFB1B8"/>
<path id="Vector_6" d="M40.8558 6.7666C40.8558 6.7666 58.2945 12.7947 57.9245 21.5178V36.2721C57.9245 36.2721 40.4991 30.2409 40.8624 21.5178L40.8558 6.7666Z" fill="#AFB1B8"/>
<path id="Vector_7" d="M73.4603 32.8181C76.7538 30.7428 80.5633 29.4574 84.5399 29.0796V24.4609C79.9579 26.0779 76.0709 29.0098 73.4603 32.8181Z" fill="#AFB1B8"/>
<path id="Vector_8" d="M71.4816 34.2094C74.1773 29.2395 78.8505 25.4045 84.54 23.493V10.1846C84.54 10.1846 59.705 18.7716 60.2303 31.1938V52.2C60.2303 52.2 61.3369 51.8159 63.0778 51.096C63.0778 50.4246 63.0778 49.747 63.1571 49.0665C63.6711 43.2995 66.6654 37.9554 71.4816 34.2094Z" fill="#AFB1B8"/>
<path id="Vector_9" d="M69.1197 42.013C69.2502 40.5561 69.5413 39.1151 69.9885 37.7119C66.9896 40.947 65.1734 44.9613 64.7956 49.1905C64.7592 49.5897 64.7394 49.989 64.7295 50.4003C66.14 49.7803 67.7818 49.006 69.5062 48.0956C69.0662 46.0947 68.936 44.0471 69.1197 42.013Z" fill="#AFB1B8"/>
<path id="Vector_10" d="M70.1075 42.0886C69.9421 43.9289 70.0454 45.7812 70.4147 47.5965C77.1999 43.8792 84.8241 38.1354 84.5301 31.1938V30.5889C79.6824 31.0855 75.1468 33.0259 71.6204 36.1119C70.7948 38.0243 70.2849 40.0386 70.1075 42.0886Z" fill="#AFB1B8"/>
</g>
</g>
</svg>
