<svg width="85" height="42" viewBox="0 0 85 42" fill="none" xmlns="http://www.w3.org/2000/svg">
<path d="M13.1462 13.103H13.1433C10.7453 13.103 8.80127 14.8306 8.80127 16.9617V16.9642C8.80127 19.0953 10.7453 20.8229 13.1433 20.8229H13.1462C15.5442 20.8229 17.4882 19.0953 17.4882 16.9642V16.9617C17.4882 14.8306 15.5442 13.103 13.1462 13.103Z" fill="#2196F3"/>
<path d="M45.195 11.8695C45.1882 8.90954 43.8623 6.07247 41.5074 3.9792C39.1525 1.88592 35.9604 0.706916 32.6297 0.700195C29.298 0.705573 26.1045 1.88398 23.7484 3.9774C21.3922 6.07082 20.0655 8.90866 20.0587 11.8695V28.1924C20.0587 28.1924 45.1922 25.7047 45.195 11.8721V11.8695Z" fill="#2196F3"/>
<path d="M0 33.55C0.00604098 35.6096 0.929149 37.5833 2.56761 39.0399C4.20607 40.4965 6.42668 41.3175 8.74418 41.3235C11.0612 41.3175 13.2814 40.4968 14.9197 39.0408C16.5581 37.5847 17.4816 35.6117 17.4884 33.5525V22.1948C17.4884 22.1948 0 23.9271 0 33.55ZM8.74418 35.5849C8.2913 35.5849 7.84859 35.4656 7.47203 35.242C7.09548 35.0184 6.80199 34.7005 6.62868 34.3287C6.45537 33.9569 6.41002 33.5477 6.49838 33.153C6.58673 32.7582 6.80481 32.3956 7.12505 32.111C7.44528 31.8264 7.85328 31.6326 8.29746 31.5541C8.74164 31.4756 9.20204 31.5159 9.62045 31.6699C10.0389 31.8239 10.3965 32.0847 10.6481 32.4194C10.8997 32.754 11.034 33.1475 11.034 33.55C11.0351 33.8178 10.9767 34.0833 10.8622 34.3311C10.7476 34.5788 10.5791 34.8041 10.3664 34.9938C10.1536 35.1836 9.90081 35.3342 9.62244 35.4369C9.34406 35.5397 9.04561 35.5926 8.74418 35.5926V35.5849Z" fill="#2196F3"/>
<path d="M24.7302 31.9414V36.207H23.8513V31.9414H24.7302ZM26.4294 33.7637V34.4492H24.4899V33.7637H26.4294ZM26.6345 31.9414V32.6299H24.4899V31.9414H26.6345ZM30.6481 33.9746V34.1768C30.6481 34.501 30.6042 34.792 30.5163 35.0498C30.4284 35.3076 30.3044 35.5273 30.1442 35.709C29.9841 35.8887 29.7927 36.0264 29.57 36.1221C29.3493 36.2178 29.1042 36.2656 28.8347 36.2656C28.5671 36.2656 28.322 36.2178 28.0993 36.1221C27.8786 36.0264 27.6872 35.8887 27.5251 35.709C27.363 35.5273 27.237 35.3076 27.1472 35.0498C27.0593 34.792 27.0153 34.501 27.0153 34.1768V33.9746C27.0153 33.6484 27.0593 33.3574 27.1472 33.1016C27.235 32.8438 27.3591 32.624 27.5192 32.4424C27.6813 32.2607 27.8727 32.1221 28.0934 32.0264C28.3161 31.9307 28.5612 31.8828 28.8288 31.8828C29.0983 31.8828 29.3434 31.9307 29.5641 32.0264C29.7868 32.1221 29.9782 32.2607 30.1384 32.4424C30.3005 32.624 30.4255 32.8438 30.5134 33.1016C30.6032 33.3574 30.6481 33.6484 30.6481 33.9746ZM29.7604 34.1768V33.9688C29.7604 33.7422 29.7399 33.543 29.6989 33.3711C29.6579 33.1992 29.5974 33.0547 29.5173 32.9375C29.4372 32.8203 29.3395 32.7324 29.2243 32.6738C29.1091 32.6133 28.9772 32.583 28.8288 32.583C28.6804 32.583 28.5485 32.6133 28.4333 32.6738C28.32 32.7324 28.2233 32.8203 28.1432 32.9375C28.0651 33.0547 28.0056 33.1992 27.9645 33.3711C27.9235 33.543 27.903 33.7422 27.903 33.9688V34.1768C27.903 34.4014 27.9235 34.6006 27.9645 34.7744C28.0056 34.9463 28.0661 35.0918 28.1462 35.2109C28.2263 35.3281 28.3239 35.417 28.4391 35.4775C28.5544 35.5381 28.6862 35.5684 28.8347 35.5684C28.9831 35.5684 29.1149 35.5381 29.2302 35.4775C29.3454 35.417 29.4421 35.3281 29.5202 35.2109C29.5983 35.0918 29.6579 34.9463 29.6989 34.7744C29.7399 34.6006 29.7604 34.4014 29.7604 34.1768ZM33.5016 35.0908C33.5016 35.0146 33.4899 34.9463 33.4665 34.8857C33.445 34.8232 33.404 34.7666 33.3434 34.7158C33.2829 34.6631 33.1979 34.6113 33.0886 34.5605C32.9792 34.5098 32.8376 34.457 32.6638 34.4023C32.4704 34.3398 32.2868 34.2695 32.113 34.1914C31.9411 34.1133 31.7888 34.0225 31.6559 33.9189C31.5251 33.8135 31.4216 33.6914 31.3454 33.5527C31.2712 33.4141 31.2341 33.2529 31.2341 33.0693C31.2341 32.8916 31.2731 32.7305 31.3513 32.5859C31.4294 32.4395 31.5388 32.3145 31.6794 32.2109C31.82 32.1055 31.986 32.0244 32.1774 31.9678C32.3708 31.9111 32.5827 31.8828 32.8132 31.8828C33.1276 31.8828 33.402 31.9395 33.6364 32.0527C33.8708 32.166 34.0524 32.3213 34.1813 32.5186C34.3122 32.7158 34.3776 32.9414 34.3776 33.1953H33.5046C33.5046 33.0703 33.4782 32.9609 33.4255 32.8672C33.3747 32.7715 33.2966 32.6963 33.1911 32.6416C33.0876 32.5869 32.9567 32.5596 32.7985 32.5596C32.6462 32.5596 32.5192 32.583 32.4177 32.6299C32.3161 32.6748 32.2399 32.7363 32.1891 32.8145C32.1384 32.8906 32.113 32.9766 32.113 33.0723C32.113 33.1445 32.1306 33.21 32.1657 33.2686C32.2028 33.3271 32.2575 33.3818 32.3298 33.4326C32.402 33.4834 32.4909 33.5312 32.5964 33.5762C32.7018 33.6211 32.8239 33.665 32.9626 33.708C33.195 33.7783 33.3991 33.8574 33.5749 33.9453C33.7526 34.0332 33.9011 34.1318 34.0202 34.2412C34.1393 34.3506 34.2292 34.4746 34.2897 34.6133C34.3503 34.752 34.3806 34.9092 34.3806 35.085C34.3806 35.2705 34.3444 35.4365 34.2722 35.583C34.1999 35.7295 34.0954 35.8535 33.9587 35.9551C33.822 36.0566 33.6589 36.1338 33.4694 36.1865C33.28 36.2393 33.0681 36.2656 32.8337 36.2656C32.6227 36.2656 32.4147 36.2383 32.2097 36.1836C32.0046 36.127 31.8181 36.042 31.6501 35.9287C31.4841 35.8154 31.3513 35.6709 31.2516 35.4951C31.152 35.3193 31.1022 35.1113 31.1022 34.8711H31.9841C31.9841 35.0039 32.0046 35.1162 32.0456 35.208C32.0866 35.2998 32.1442 35.374 32.2184 35.4307C32.2946 35.4873 32.3845 35.5283 32.488 35.5537C32.5934 35.5791 32.7087 35.5918 32.8337 35.5918C32.986 35.5918 33.111 35.5703 33.2087 35.5273C33.3083 35.4844 33.3815 35.4248 33.4284 35.3486C33.4772 35.2725 33.5016 35.1865 33.5016 35.0908ZM36.8854 31.9414V36.207H36.0095V31.9414H36.8854ZM38.1979 31.9414V32.6299H34.7175V31.9414H38.1979ZM41.5612 35.5215V36.207H39.2907V35.5215H41.5612ZM39.5778 31.9414V36.207H38.6989V31.9414H39.5778ZM41.2653 33.6787V34.3467H39.2907V33.6787H41.2653ZM41.5583 31.9414V32.6299H39.2907V31.9414H41.5583ZM42.0739 31.9414H43.6647C43.9909 31.9414 44.2712 31.9902 44.5056 32.0879C44.7419 32.1855 44.9235 32.3301 45.0505 32.5215C45.1774 32.7129 45.2409 32.9482 45.2409 33.2275C45.2409 33.4561 45.2018 33.6523 45.1237 33.8164C45.0475 33.9785 44.9391 34.1143 44.7985 34.2236C44.6599 34.3311 44.4968 34.417 44.3093 34.4814L44.0309 34.6279H42.6481L42.6423 33.9424H43.6706C43.8249 33.9424 43.9528 33.915 44.0544 33.8604C44.1559 33.8057 44.2321 33.7295 44.2829 33.6318C44.3356 33.5342 44.362 33.4209 44.362 33.292C44.362 33.1553 44.3366 33.0371 44.2858 32.9375C44.235 32.8379 44.1579 32.7617 44.0544 32.709C43.9509 32.6562 43.821 32.6299 43.6647 32.6299H42.9528V36.207H42.0739V31.9414ZM44.4587 36.207L43.486 34.3057L44.4147 34.2998L45.3991 36.166V36.207H44.4587ZM49.0729 34.6865H47.986V34.001H49.0729C49.2409 34.001 49.3776 33.9736 49.4831 33.9189C49.5886 33.8623 49.6657 33.7842 49.7145 33.6846C49.7634 33.585 49.7878 33.4727 49.7878 33.3477C49.7878 33.2207 49.7634 33.1025 49.7145 32.9932C49.6657 32.8838 49.5886 32.7959 49.4831 32.7295C49.3776 32.6631 49.2409 32.6299 49.0729 32.6299H48.2907V36.207H47.4118V31.9414H49.0729C49.4069 31.9414 49.6931 32.002 49.9313 32.123C50.1716 32.2422 50.3552 32.4072 50.4821 32.6182C50.6091 32.8291 50.6725 33.0703 50.6725 33.3418C50.6725 33.6172 50.6091 33.8555 50.4821 34.0566C50.3552 34.2578 50.1716 34.4131 49.9313 34.5225C49.6931 34.6318 49.4069 34.6865 49.0729 34.6865ZM54.1413 35.5215V36.207H51.8708V35.5215H54.1413ZM52.1579 31.9414V36.207H51.279V31.9414H52.1579ZM53.8454 33.6787V34.3467H51.8708V33.6787H53.8454ZM54.1384 31.9414V32.6299H51.8708V31.9414H54.1384ZM56.6198 31.9414V36.207H55.7438V31.9414H56.6198ZM57.9323 31.9414V32.6299H54.4518V31.9414H57.9323ZM61.2956 35.5215V36.207H59.0251V35.5215H61.2956ZM59.3122 31.9414V36.207H58.4333V31.9414H59.3122ZM60.9997 33.6787V34.3467H59.0251V33.6787H60.9997ZM61.2927 31.9414V32.6299H59.0251V31.9414H61.2927ZM61.8083 31.9414H63.3991C63.7253 31.9414 64.0056 31.9902 64.2399 32.0879C64.4763 32.1855 64.6579 32.3301 64.7849 32.5215C64.9118 32.7129 64.9753 32.9482 64.9753 33.2275C64.9753 33.4561 64.9362 33.6523 64.8581 33.8164C64.7819 33.9785 64.6735 34.1143 64.5329 34.2236C64.3942 34.3311 64.2311 34.417 64.0436 34.4814L63.7653 34.6279H62.3825L62.3766 33.9424H63.405C63.5593 33.9424 63.6872 33.915 63.7888 33.8604C63.8903 33.8057 63.9665 33.7295 64.0173 33.6318C64.07 33.5342 64.0964 33.4209 64.0964 33.292C64.0964 33.1553 64.071 33.0371 64.0202 32.9375C63.9694 32.8379 63.8923 32.7617 63.7888 32.709C63.6852 32.6562 63.5554 32.6299 63.3991 32.6299H62.6872V36.207H61.8083V31.9414ZM64.1931 36.207L63.2204 34.3057L64.1491 34.2998L65.1335 36.166V36.207H64.1931ZM67.8727 35.0908C67.8727 35.0146 67.861 34.9463 67.8376 34.8857C67.8161 34.8232 67.7751 34.7666 67.7145 34.7158C67.654 34.6631 67.569 34.6113 67.4597 34.5605C67.3503 34.5098 67.2087 34.457 67.0349 34.4023C66.8415 34.3398 66.6579 34.2695 66.4841 34.1914C66.3122 34.1133 66.1599 34.0225 66.027 33.9189C65.8962 33.8135 65.7927 33.6914 65.7165 33.5527C65.6423 33.4141 65.6052 33.2529 65.6052 33.0693C65.6052 32.8916 65.6442 32.7305 65.7224 32.5859C65.8005 32.4395 65.9099 32.3145 66.0505 32.2109C66.1911 32.1055 66.3571 32.0244 66.5485 31.9678C66.7419 31.9111 66.9538 31.8828 67.1843 31.8828C67.4987 31.8828 67.7731 31.9395 68.0075 32.0527C68.2419 32.166 68.4235 32.3213 68.5524 32.5186C68.6833 32.7158 68.7487 32.9414 68.7487 33.1953H67.8757C67.8757 33.0703 67.8493 32.9609 67.7966 32.8672C67.7458 32.7715 67.6677 32.6963 67.5622 32.6416C67.4587 32.5869 67.3278 32.5596 67.1696 32.5596C67.0173 32.5596 66.8903 32.583 66.7888 32.6299C66.6872 32.6748 66.611 32.7363 66.5602 32.8145C66.5095 32.8906 66.4841 32.9766 66.4841 33.0723C66.4841 33.1445 66.5016 33.21 66.5368 33.2686C66.5739 33.3271 66.6286 33.3818 66.7009 33.4326C66.7731 33.4834 66.862 33.5312 66.9675 33.5762C67.0729 33.6211 67.195 33.665 67.3337 33.708C67.5661 33.7783 67.7702 33.8574 67.946 33.9453C68.1237 34.0332 68.2722 34.1318 68.3913 34.2412C68.5104 34.3506 68.6003 34.4746 68.6608 34.6133C68.7214 34.752 68.7516 34.9092 68.7516 35.085C68.7516 35.2705 68.7155 35.4365 68.6432 35.583C68.571 35.7295 68.4665 35.8535 68.3298 35.9551C68.1931 36.0566 68.03 36.1338 67.8405 36.1865C67.6511 36.2393 67.4391 36.2656 67.2048 36.2656C66.9938 36.2656 66.7858 36.2383 66.5807 36.1836C66.3757 36.127 66.1891 36.042 66.0212 35.9287C65.8552 35.8154 65.7224 35.6709 65.6227 35.4951C65.5231 35.3193 65.4733 35.1113 65.4733 34.8711H66.3552C66.3552 35.0039 66.3757 35.1162 66.4167 35.208C66.4577 35.2998 66.5153 35.374 66.5895 35.4307C66.6657 35.4873 66.7556 35.5283 66.8591 35.5537C66.9645 35.5791 67.0798 35.5918 67.2048 35.5918C67.3571 35.5918 67.4821 35.5703 67.5798 35.5273C67.6794 35.4844 67.7526 35.4248 67.7995 35.3486C67.8483 35.2725 67.8727 35.1865 67.8727 35.0908Z" fill="#2196F3"/>
</svg>
