<svg width="20" height="20" fill="none" xmlns="http://www.w3.org/2000/svg"><path d="M18.323 0h-4.648A.666.666 0 0013 .674c0 .379.317.694.697.694h3l-8.028 8-1.647-1.642a.678.678 0 00-.972 0l-3.401 3.39a5.66 5.66 0 01-.275-1.79c0-3.22 2.64-5.852 5.873-5.852 1.204 0 2.345.357 3.274.989l.972-.969c-1.204-.863-2.661-1.389-4.246-1.389C4.253 2.105 1 5.347 1 9.326c0 3.98 3.232 7.2 7.225 7.2a7.208 7.208 0 004.605-1.663l4.944 4.926a.723.723 0 00.486.211.64.64 0 00.485-.21.672.672 0 000-.97l-4.943-4.904a7.195 7.195 0 001.669-4.59 7.27 7.27 0 00-.402-2.357l-1.098 1.094c.084.4.148.821.148 1.242 0 3.221-2.64 5.853-5.873 5.853A5.918 5.918 0 013.26 12.4c.021-.021.043-.021.064-.042l3.19-3.179 1.647 1.642a.678.678 0 00.972 0l8.514-8.484v2.99c0 .378.296.673.676.673.38 0 .676-.295.676-.674V.695c.021-.4-.296-.695-.676-.695z" fill="#848DF9"/></svg>